<?xml version="1.0" encoding="UTF-8" standalone="no"?><!DOCTYPE svg PUBLIC "-//W3C//DTD SVG 1.1//EN" "http://www.w3.org/Graphics/SVG/1.1/DTD/svg11.dtd"><svg width="100%" height="100%" viewBox="0 0 5689 3250" version="1.1" xmlns="http://www.w3.org/2000/svg" xmlns:xlink="http://www.w3.org/1999/xlink" xml:space="preserve" xmlns:serif="http://www.serif.com/" style="fill-rule:evenodd;clip-rule:evenodd;stroke-miterlimit:10;"><g id="Background"></g><g id="outline"><path d="M3106.358282849913,1111.896167037496l197.385586829199,-355.294056292559l0,-106.193445714109l-138.169910780439,-476.094035432029l-370.09797530475,477.771812920077l0,374.144379834747l-251.666623207229,6.612417158778c1.28300631439,-19.639865889505 2.072548661707,-46.681691285105 0,-78.756849144851c-2.763398215609,-42.339208374863 -9.573200961217,-77.572535623875 -19.73855868292,-118.628737684349c-21.317643377554,-86.454887031189 -32.568621826818,-131.95226479532 -59.215676048761,-187.51630748774c-21.02156499731,-43.918293069497 -59.314368842174,-110.042464657279 -128.30063143898,-177.64702814628l-582.287481146138,-335.555497609639c-3.355554976096,67.308485108757 -5.724182018047,163.336573101163 0,278.70844860283c5.822874811461,116.457496229228 9.079736994143,183.272517370912 29.60783802438,273.971194518929c20.626793823651,91.19214111509 50.43201743486,216.433295958217 148.0391901219,335.555497609639c33.555549760964,40.858816473644 66.222864381196,70.269268911195 88.823514073139,88.82351407314l217.12414551212,157.90846946336l-463.856129048619,1125.097844926437l1075.751448219137,720.457391926579l88.823514073139,-523.071805097379l118.43135209752,-296.078380243799l236.862704195039,29.60783802438l138.16991078044,29.60783802438l128.30063143898,69.08495539022l177.64702814628,0l138.169910780439,-118.431352097519l49.3463967073,-197.385586829199l0,-116.062725055569l-424.379011682779,-446.48619740765l2.763398215609,-167.77774880482l-397.534571874008,-266.470542219419l0,0.098692793415Z" style="fill:#d99c52;fill-rule:nonzero;"/></g><g id="White_areas"><path d="M2943.515173715824,2590.412905181615l-379.079019505478,-323.811055193302l-139.058145921172,555.93650530444l417.273130556928,278.017599048928l100.864034869722,-510.143049160066Z" style="fill:#e2dcc7;fill-rule:nonzero;stroke:#e2dcc7;stroke-width:9.87px;"/><path d="M3668.907205313132,2069.216263159114c-4.145097323413,-8.290194646826 -9.573200961217,-22.008492931456 -9.86927934146,-39.47711736584c-0.493463967073,-37.996725464621 23.982348799747,-63.558158959002 29.60783802438,-69.08495539022l-368.814968990359,-384.901894316939l240.51433755138,424.379011682779l-88.82351407314,167.77774880482l-98.6927934146,128.30063143898l59.215676048761,59.21567604876l128.30063143898,69.08495539022l177.64702814628,0l138.169910780439,-118.431352097519l49.3463967073,-192.845718332128l-78.95423473168,84.283645576068l-167.77774880482,-118.431352097519l-9.869279341459,-9.86927934146Z" style="fill:#e2dcc7;fill-rule:nonzero;stroke:#e2dcc7;stroke-width:9.87px;"/><path d="M1754.267013069897,213.791746964638c19.73855868292,13.126141524142 39.47711736584,26.350975841698 59.21567604876,39.47711736584c-3.059476595853,128.794095406053 9.671893754631,305.947659585259 78.95423473168,493.463967072999c33.358164174135,90.205213180944 75.796065342413,201.234605772368 177.64702814628,296.078380243799c28.522217296819,26.548361428528 59.116983255345,49.3463967073 98.6927934146,78.95423473168c89.9091348007,67.111099521928 168.271212771892,115.964032262154 222.947020323581,148.0391901219l13.915683871459,0l-49.346396707299,-542.810363780299l78.954234731679,236.862704195039l19.73855868292,148.0391901219l9.869279341459,187.51630748774l-49.346396707299,69.08495539022l-22.501956898529,0l-155.145071247751,-98.6927934146l-197.385586829199,-148.0391901219c-15.297382979264,-11.15228565585 -36.220255183159,-27.535289362674 -59.21567604876,-49.3463967073c-68.690184216562,-65.334629240465 -104.91043939972,-131.162722448003 -118.43135209752,-157.908469463359c-16.185618119994,-31.877772272916 -24.574505560235,-55.860121072663 -39.47711736584,-98.6927934146c0,0 -23.291499245846,-66.815021141684 -39.47711736584,-138.16991078044c-19.541173096091,-86.060115857531 -36.812411943646,-243.376428560403 -29.60783802438,-444.117570365699l0,-19.73855868292Z" style="fill:#e2dcc7;fill-rule:nonzero;stroke:#e2dcc7;stroke-width:9.87px;"/></g><g id="Red_Areas"><path d="M2237.861700801435,1279.673915842315c-13.126141524142,32.864700207062 -26.350975841699,65.828093207538 -39.47711736584,98.6927934146l189.88493452969,0l0,-10.560128895362c-50.135939054617,-29.410452437551 -100.271878109234,-58.820904875101 -150.40781716385,-88.132664519238Z" style="fill:#7e3428;fill-rule:nonzero;stroke:#7e3428;stroke-width:9.87px;"/><path d="M2543.809360386695,1032.941932305816l40.167966919742,0l-79.645084285582,187.51630748774l-9.671893754631,0l49.149011120471,-187.51630748774Z" style="fill:#7e3428;fill-rule:nonzero;stroke:#7e3428;stroke-width:9.87px;"/><path d="M2795.475983593924,1025.441280006307l202.320226499929,7.50065229951l108.56207275606,78.95423473168l5.329410844388,0l4.539868497072,-59.21567604876l-128.30063143898,-49.3463967073l-192.45094715847,-39.674502952669l0,61.781688677539Z" style="fill:#7e3428;fill-rule:nonzero;stroke:#7e3428;stroke-width:9.87px;"/><path d="M3047.142606801153,2296.209688012693l-108.56207275606,296.078380243799l-375.032614975479,-325.686218268179c-85.566651890458,-95.435931231918 -171.034610987501,-190.773169670421 -256.601262877959,-286.209100902339c-3.256862182681,-131.557493621662 -6.612417158778,-263.213680036738 -9.86927934146,-394.771173658399l59.215676048761,365.163335634019l236.862704195039,266.47054221942l453.986849707158,78.954234731679Z" style="fill:#7e3428;fill-rule:nonzero;stroke:#7e3428;stroke-width:9.87px;"/></g><g id="light_brown"><path d="M3550.475853215612,2000.131307768894c-14.409147838532,39.47711736584 -36.022869596329,87.54050775875 -69.08495539022,138.16991078044c-23.094113659016,35.43071283584 -47.076462458764,64.939858066807 -69.08495539022,88.823514073139l-236.862704195039,-266.470542219419c125.043769256297,13.126141524142 249.988845719182,26.350975841698 375.032614975479,39.47711736584Z" style="fill:#b78b5d;fill-rule:nonzero;stroke:#b78b5d;stroke-width:9.87px;"/><path d="M2306.946656191655,1990.262028427434c65.433322033879,157.90846946336 130.866644067759,315.816938926719 196.398658895053,473.725408390079l50.333324641447,-199.458135490906c-82.211096914361,-91.389526701919 -164.520886622138,-182.779053403839 -246.7319835365,-274.267272899173Z" style="fill:#b78b5d;fill-rule:nonzero;stroke:#b78b5d;stroke-width:9.87px;"/></g><g id="Nose_and_Ears"><path d="M1813.482689118656,253.268864330478l424.379011682779,296.078380243799l9.86927934146,9.86927934146c10.560128895362,5.822874811461 24.969276733893,15.099997392434 39.47711736584,29.60783802438c15.297382979263,15.297382979263 23.784963212918,29.60783802438 29.60783802438,39.47711736584c9.474508167801,16.185618119994 22.403264105114,42.635286755107 29.60783802438,78.95423473168l0,9.86927934146c3.65163335634,12.237906383411 7.007188332436,25.462740700967 9.86927934146,39.47711736584c6.711109952193,32.667314620232 9.375815374387,62.669923818271 9.869279341459,88.82351407314l0,13.915683871458l38.983653398767,404.541760206444l-13.422219904386,5.921567604876l-153.862064933361,-109.252922309962l-143.005857657755,-96.028087992406c-11.349671242679,-9.277122580972 -27.535289362674,-23.39019203926 -45.398684970716,-42.043129994619c-50.826788608519,-53.096722857054 -80.533319426314,-107.377759235084 -107.673837615329,-167.284284837746c-67.209792315342,-148.631346882387 -96.12678078582,-283.64308827356 -98.6927934146,-296.078380243799c-15.988232533165,-76.782993276558 -30.989537132184,-181.10127591579 -29.60783802438,-305.947659585259" style="fill:#7e3428;fill-rule:nonzero;stroke:#7e3428;stroke-width:9.87px;"/><path d="M3925.508468191091,2118.562659866413c3.059476595852,-4.342482910242 7.007188332437,-10.95490006902 9.86927934146,-19.73855868292c4.441175703657,-13.718298284629 2.664705422194,-22.501956898528 0,-49.3463967073c-4.145097323413,-41.747051614376 -2.664705422194,-47.767312012666 -9.86927934146,-59.215676048759c-2.566012628779,-4.145097323413 -8.882351407314,-12.928755937312 -19.73855868292,-19.73855868292c-9.770586548046,-6.118953191705 -19.93594426975,-8.487580233656 -39.47711736584,-9.86927934146c-20.922872203895,-1.480391901219 -33.950320934623,-0.493463967073 -49.3463967073,0c-36.516333563402,1.085620727561 -46.582998491691,-2.171241455122 -88.823514073139,0c-18.652937955359,0.986927934146 -29.311759644136,2.269934248536 -39.47711736584,9.86927934146c-9.770586548046,7.30326671268 -14.211762251703,16.481696500238 -19.73855868292,29.60783802438c-7.401959506095,17.468624434384 -13.816991078044,32.667314620233 -9.86927934146,49.3463967073c3.552940562926,15.099997392434 14.014376664873,24.574505560236 19.73855868292,29.607838024381c133.037885522881,117.543116956788 149.914353196777,121.885599867031 167.77774880482,118.431352097519c11.053592862436,-2.072548661707 41.056202060474,-10.658821688777 69.08495539022,-59.21567604876l9.86927934146,-19.73855868292Z" style="fill:#39221c;fill-rule:nonzero;"/></g></svg>