<?xml version="1.0" encoding="UTF-8" standalone="no"?><!DOCTYPE svg PUBLIC "-//W3C//DTD SVG 1.1//EN" "http://www.w3.org/Graphics/SVG/1.1/DTD/svg11.dtd"><svg width="100%" height="100%" viewBox="0 0 4267 2438" version="1.1" xmlns="http://www.w3.org/2000/svg" xmlns:xlink="http://www.w3.org/1999/xlink" xml:space="preserve" xmlns:serif="http://www.serif.com/" style="fill-rule:evenodd;clip-rule:evenodd;stroke-miterlimit:10;"><g id="Background"></g><g id="Head"><g><path d="M1222.9,1922.9l-329.2,50l-8.3,0c-13.6,-1.8 -23.7,13.8 -16.7,25c3.8,6.2 11.7,7.6 16.7,8.3c17.6,8.5 663.3,2.5 705.7,4.2l148.5,-100l191.7,-358.3l129.2,16.7l25,87.5l-4.1,141.7l-33.4,220.8l616.7,4.2l-37.5,-25l108.3,4.2l-108.3,-70.8l-354.2,0l12.5,-270.8l12.5,-12.5c71.1,-5.9 120.2,-80.5 133.3,-112.5l-8.3,-4.2l-45.8,-50l0,-30.7l-33.3,-48.5l-12.5,-54.2l163.1,0l36.9,-50l120.8,-129.2l83.3,-119.3l12.5,-34.9l33.3,-212.5l-183.3,-158.3l-62.5,145.8l-450,100l-187.5,141.7l-137.5,200l-150,566.7l-8.3,4.2c-7.1,8.1 -16.8,18.3 -29.2,29.2c0,0 -21.9,19.2 -45.8,33.3c-38.3,22.6 -82.8,29.2 -112.5,33.3c-65.8,9.2 -124.4,15.9 -175,20.8l-16.7,4.2Z" style="fill:#d99c52;fill-rule:nonzero;stroke:#d99c52;stroke-width:4.2px;"/><path d="M1358.3,2006.3c1,9.3 79.4,10.7 235.4,4.2c48.6,-33.3 97.2,-66.7 145.8,-100c25,-44.5 50,-88.9 75,-133.3c-7.6,-58.3 -15.3,-116.7 -22.9,-175l-100,245.8c-54.2,38.9 -108.3,77.8 -162.5,116.7c-114.7,19.8 -171.7,33.7 -170.8,41.7Z" style="fill:#e2dcc7;fill-rule:nonzero;stroke:#e2dcc7;stroke-width:4.2px;"/><path d="M2502.1,2022.9c-151.4,-1.4 -302.8,-2.8 -454.2,-4.2c9.7,-68 19.5,-136.1 29.2,-204.2c3,-55.5 5.8,-111.1 8.3,-166.7l125,-154.2l8.3,-8.3l33.3,-166.7l-66.7,-166.7l-129.2,-62.5l137.5,45.8l79.2,191.7l-66.7,329.2l-12.5,295.8l75,0l233.3,70.8Z" style="fill:#e2dcc7;fill-rule:nonzero;stroke:#e2dcc7;stroke-width:4.2px;"/><path d="M2335.4,1343.8c54.2,1.4 108.3,2.8 162.5,4.2l25,-37.5l-70.8,-120.8l-166.7,129.2l-54.2,345.8l0,4.2c72.3,-8.4 162.3,-43 200,-133.3c-1.4,-1.4 -2.8,-2.8 -4.2,-4.2l-50,-45.9l0,-40.6l-33.3,-46.8c-2.8,-18 -5.5,-36.1 -8.3,-54.2Z" style="fill:#e2dcc7;fill-rule:nonzero;stroke:#e2dcc7;stroke-width:4.2px;"/><path d="M2568.8,1406.2l12.5,-29.2l-154.2,-254.2l16.7,-62.5l66.7,66.7l58.3,0l-12.5,16.7l66.7,229.2l0,18.9l-12.5,31.1l-12.8,0l-28.9,-16.7Z" style="fill:#e2dcc7;fill-rule:nonzero;stroke:#e2dcc7;stroke-width:4.2px;"/><path d="M2593.8,1231.2c-5.5,-27.8 -11.1,-55.5 -16.7,-83.3l100,-137.5l0,-49.7l-12.5,-37.8c13.9,-62.5 27.8,-125 41.7,-187.5c25,22.2 50,44.5 75,66.7c-9.7,72.2 -19.5,144.5 -29.2,216.7l-4.2,20.8l-87.5,125c-22.2,22.2 -44.5,44.5 -66.7,66.7Z" style="fill:#e2dcc7;fill-rule:nonzero;stroke:#e2dcc7;stroke-width:4.2px;"/><path d="M2514.6,2022.9c-7,-2.8 -13.9,-5.5 -20.8,-8.3l54.2,-62.5l-204.6,0l29.6,-20.8l254.2,0c36.1,23.6 72.2,47.2 108.3,70.8c-34.7,-1.4 -69.5,-2.8 -104.2,-4.2l37.5,25l-154.2,0Z" style="fill:#7e3428;fill-rule:nonzero;stroke:#7e3428;stroke-width:4.2px;"/><path d="M2289.6,1660.4c-1.4,19.7 -2.8,39.3 -4.2,59l-83.3,45.2l4.2,-95.8l70.8,-341.7l-83.3,-191.7c-45.8,-15.3 -91.7,-30.5 -137.5,-45.8c50,11.1 100,22.2 150,33.3l79.2,198.6l-54.2,347.2c19.5,-2.8 38.9,-5.5 58.3,-8.3Z" style="fill:#7e3428;fill-rule:nonzero;stroke:#7e3428;stroke-width:4.2px;"/><path d="M2435.4,1522.9c31.7,-54.2 43.9,-128.3 41.7,-175l-145.8,0l8.3,50l37.5,45.4l0,38c18,18 36.1,36.1 54.2,54.2c1.4,-4.2 2.8,-8.3 4.2,-12.5Z" style="fill:#7e3428;fill-rule:nonzero;stroke:#7e3428;stroke-width:4.2px;"/><path d="M2568.8,1406.2l0,16.8l-29.2,33.2l29.2,0l-20.8,37.5l33.3,-8.3l0,16.6l37.5,-37.4c1.4,-22.2 2.8,-44.5 4.2,-66.7c-5.5,8.3 -11.1,16.7 -16.7,25l-37.5,-16.7Z" style="fill:#7e3428;fill-rule:nonzero;stroke:#7e3428;stroke-width:4.2px;"/><path d="M2660.4,1377.1l-29.2,37.5l19.3,0l-19.3,28.7l22.9,0l-2.1,13l-16.7,12.5l28.9,0l33.6,-20.8l8.3,-50l-17.3,4.8l-28.5,-25.6Z" style="fill:#7e3428;fill-rule:nonzero;stroke:#7e3428;stroke-width:4.2px;"/><path d="M2660.4,1164.6l8.3,23.6l-50,56.5l-12.5,-21.8l54.2,-58.3Z" style="fill:#7e3428;fill-rule:nonzero;stroke:#7e3428;stroke-width:4.2px;"/><path d="M2535.4,1293.8l-104.2,-170.8l33.3,-162.5l-54.2,162.5l112.5,187.5c4.2,-5.5 8.3,-11.1 12.5,-16.7Z" style="fill:#7e3428;fill-rule:nonzero;stroke:#7e3428;stroke-width:4.2px;"/><path d="M2585.4,1239.6c-9.7,-33.3 -19.5,-66.7 -29.2,-100c38.9,-43 77.8,-86.1 116.7,-129.2c-32,44.5 -63.9,88.9 -95.8,133.3c7,27.8 13.9,55.5 20.8,83.3l-12.5,12.5Z" style="fill:#7e3428;fill-rule:nonzero;stroke:#7e3428;stroke-width:4.2px;"/><path d="M1881.3,1581.2c-8.3,-10 -18.8,-24 -29.2,-41.7c0,0 -22.3,-37.9 -33.3,-79.2c-23.8,-89 17.8,-200.5 20.8,-208.3l0,16.7c-2.4,17.4 -8.4,66.5 -8.3,79.2c-0.4,30.9 12.5,55.1 20.8,70.8c37.1,67.2 104.5,100.2 158.3,112.5c15.3,2.8 30.5,5.5 45.8,8.3l0,29.2c-41.7,-5.5 -83.3,-11.1 -125,-16.7l-29.2,58.3l-16.7,-20.8l-4.2,-8.3Z" style="fill:#7e3428;fill-rule:nonzero;stroke:#7e3428;stroke-width:4.2px;"/><path d="M1897.9,1602.1c-21.7,-28.5 -45.1,-62.4 -64.6,-93.8c-2.8,-7 -5.5,-13.9 -8.3,-20.8c-13.9,43 -27.8,86.1 -41.7,129.2c11.1,54.2 22.2,108.3 33.3,162.5c29.2,-55.5 58.3,-111.1 87.5,-166.7c-2.1,-3.5 -4.2,-7 -6.2,-10.4Z" style="fill:#b38252;fill-rule:nonzero;"/><path d="M2195.8,1950c1.3,-11.7 118,-10.3 350,4.2c-18,20.8 -36.1,41.7 -54.2,62.5c-198.5,-33.5 -297.1,-55.8 -295.8,-66.7Z" style="fill:#b38252;fill-rule:nonzero;"/><path d="M2372.9,1931.3c-8.3,5.5 -16.7,11.1 -25,16.7l-150,0c1.4,-62.5 2.8,-125 4.2,-187.5l83.3,-41.7c-2.8,69.5 -5.5,138.9 -8.3,208.3c32,1.4 63.9,2.8 95.8,4.2Z" style="fill:#8d5d3f;fill-rule:nonzero;stroke:#8d5d3f;stroke-width:4.2px;"/><path d="M2668.8,1189.6c-16.7,18 -33.3,36.1 -50,54.2c15.3,32.5 30.5,64.9 45.8,97.4c-1.4,12 -2.8,24 -4.2,36c13.9,15.3 27.8,30.5 41.7,45.8c2.8,-13.9 5.5,-27.8 8.3,-41.7l0,-40.1c-13.9,-50.5 -27.8,-101 -41.7,-151.5Z" style="fill:#8d5d3f;fill-rule:nonzero;stroke:#8d5d3f;stroke-width:4.2px;"/><path d="M2385.4,1431.2c0,0 -33.1,-33.1 -33.3,-33.3c-6.3,-6.4 -12.4,-23.1 -12.5,-66.7l4.2,0c31.2,10.2 53.5,40.4 58.3,66.7l33.3,0l0,-8.3c4.7,-11.5 27.2,-56.5 37.5,-54.2c8.9,1.5 15.6,28.1 8.3,50c-4,12.2 -11.5,20.4 -16.7,25l4.2,4.2c2.5,2.7 5.8,6.9 8.3,12.5c3.9,8.6 4.3,16.4 4.2,20.8l4.2,8.3c9.7,9.7 19.5,19.5 29.2,29.2l0,4.2c9.8,28.2 -24,60.5 -52.1,31.2l-8.3,-4.2c-3.4,-0.5 -8.5,-1.2 -14.6,-2.1c-15.4,-2.3 -23.2,-3.4 -25,-4.2c-11.9,-5.4 -17.8,-16.1 -25,-29.2c-11,-16.5 -10.9,-36.2 -4.2,-50Z" style="fill:#d99c52;fill-rule:nonzero;"/><path d="M2352.1,1343.8c3.6,-1.5 9.3,4.5 20.8,16.7c8.6,9.1 12.9,13.6 16.7,20.8c7.4,14.3 10.1,34.3 4.2,37.5c-6.1,3.2 -20.2,-11.6 -25,-16.7c-3.7,-3.9 -8.5,-8.9 -12.5,-16.7c-8.7,-16.8 -10.1,-39.2 -4.2,-41.7Z" style="fill:#8b3f2e;fill-rule:nonzero;"/><path d="M2487.5,1491.7l-16.7,16.7c-2.8,4.2 -5.5,8.3 -8.3,12.5c7,4.2 13.9,8.3 20.8,12.5l16.7,0c2.8,-2.8 5.5,-5.5 8.3,-8.3c2.8,-4.2 5.5,-8.3 8.3,-12.5l0,-8.3c-9.7,-4.2 -19.5,-8.3 -29.2,-12.5Z" style="fill:#efdec3;fill-rule:nonzero;"/><path d="M2512.5,1483.3l-22.1,0l-2.9,15.7l8.3,5.1l20.7,0l0,-12.5l-4,-8.3Z" style="fill:#48291d;fill-rule:nonzero;"/><path d="M2454.2,1452.1c-0.3,13.8 -20.5,13.8 -20.8,0c0.3,-13.8 20.5,-13.8 20.8,0Z" style="fill:#48291d;fill-rule:nonzero;"/><g><path d="M2827.6,444.3l36.2,-65.1l0,-19.5l-25.3,-87.2l-67.8,87.6l0,68.6l-46.1,1.2c0.9,-10.6 -0.6,-25.2 -3.6,-36.2c-3.9,-15.8 -6,-24.2 -10.8,-34.4c-3.9,-8 -10.9,-20.2 -23.5,-32.5l-106.7,-61.5c-1.1,58.4 -4.3,135.6 48.8,179.1l39.8,29l-85,206.2l197.2,132l16.3,-95.9l21.7,-54.2l43.4,5.4l25.3,5.4l23.5,12.7l32.5,0l25.3,-21.7l9,-36.2l0,-21.3l-77.8,-81.8l0.5,-30.7l-72.9,-48.8l0,-0Z" style="fill:#d99c52;fill-rule:nonzero;"/><path d="M2797.8,715.3l-69.5,-59.3l-25.5,101.9l76.5,50.9l18.5,-93.5Z" style="fill:#e2dcc7;fill-rule:nonzero;stroke:#e2dcc7;stroke-width:4.2px;"/><path d="M2930.8,619.8c-0.7,-1.5 -1.7,-4 -1.8,-7.3c-0.1,-7 4.4,-11.6 5.4,-12.7l-67.6,-70.5l44.1,77.8l-16.3,30.7l-18.1,23.5l10.8,10.8l23.5,12.7l32.5,0l25.3,-21.7l9,-35.3l-14.5,15.5l-30.8,-21.7l-1.8,-1.8Z" style="fill:#e2dcc7;fill-rule:nonzero;stroke:#e2dcc7;stroke-width:4.2px;"/><path d="M2579.8,279.7c3.6,2.4 7.2,4.8 10.8,7.2c-1.1,39.9 9.1,108.3 47,144.7c15.4,14 45.7,34 59,41.6l2.5,0l-9,-99.5l14.5,43.4l3.6,27.1l1.8,34.4l-9,12.7l-4.1,0l-28.4,-18.1c-9.1,-7.2 -38.9,-28.3 -47,-36.2c-12.6,-12 -19.2,-24 -21.7,-29c-3,-5.8 -4.5,-10.2 -7.2,-18.1c-9.8,-28 -14.2,-58.5 -12.7,-106.7l0,-3.6l0,-0Z" style="fill:#e2dcc7;fill-rule:nonzero;stroke:#e2dcc7;stroke-width:4.2px;"/><path d="M2668.5,475c-2.4,6 -4.8,12 -7.2,18.1l34.8,0l0,-1.9c-9.2,-5.4 -18.4,-10.8 -27.6,-16.2l0,-0Z" style="fill:#7e3428;fill-rule:nonzero;stroke:#7e3428;stroke-width:4.2px;"/><path d="M2724.5,429.8l7.4,0l-14.6,34.4l-1.8,0l9,-34.4Z" style="fill:#7e3428;fill-rule:nonzero;stroke:#7e3428;stroke-width:4.2px;"/><path d="M2770.7,428.5l37.1,1.4l19.9,14.5l1,0l0.8,-10.8l-23.5,-9l-35.2,-7.3l0,11.3Z" style="fill:#7e3428;fill-rule:nonzero;stroke:#7e3428;stroke-width:4.2px;"/><path d="M2816.8,661.4l-19.9,54.2l-68.8,-59.7c-15.7,-17.5 -31.4,-35 -47,-52.5c-0.6,-24.1 -1.2,-48.2 -1.8,-72.4l10.8,66.9l43.4,48.8l83.2,14.5l0,0.1Z" style="fill:#7e3428;fill-rule:nonzero;stroke:#7e3428;stroke-width:4.2px;"/><path d="M2909,607.1c-3.9,12 -15.5,31.8 -25.3,41.6c-14.5,-16.3 -29,-32.5 -43.4,-48.8c22.9,2.4 45.8,4.8 68.8,7.3l0,-0Z" style="fill:#b78b5d;fill-rule:nonzero;stroke:#b78b5d;stroke-width:4.2px;"/><path d="M2681.1,605.3c12,29 24,57.9 36,86.8l9.3,-36.6c-15.1,-16.8 -30.2,-33.5 -45.2,-50.2l-0,0Z" style="fill:#b78b5d;fill-rule:nonzero;stroke:#b78b5d;stroke-width:4.2px;"/><path d="M2590.7,286.9l77.8,54.2l1.8,1.8c10.4,6.2 15,14.2 18.1,27.1l0,1.8c2.2,7.2 3.6,16.8 3.6,23.5l0,2.5l7.1,74.1l-2.5,1.1l-28.2,-20l-26.2,-17.6c-12.1,-9.4 -22.5,-24.9 -28,-38.4c-12.3,-27.3 -17.6,-52 -18.1,-54.2c-2.9,-14.1 -5.7,-33.2 -5.4,-56.1" style="fill:#7e3428;fill-rule:nonzero;stroke:#7e3428;stroke-width:4.2px;"/><path d="M2977.8,628.8c2.7,-4 2.6,-6.2 1.8,-12.7c-0.7,-7.7 -0.5,-8.8 -1.8,-10.8c-0.5,-0.8 -1.6,-2.4 -3.6,-3.6c-3.5,-2.4 -12.2,-2 -16.3,-1.8c-6.7,0.2 -8.5,-0.4 -16.3,0c-3.4,0.2 -5.4,0.4 -7.2,1.8c-1.8,1.3 -2.6,3 -3.6,5.4c-1.4,3.2 -2.5,6 -1.8,9c0.7,2.7 2.6,4.5 3.6,5.4c24.4,21.5 27.5,22.3 30.8,21.7c2,-0.4 7.5,-2 12.7,-10.8l1.8,-3.6l0,-0Z" style="fill:#39221c;fill-rule:nonzero;"/></g></g></g></svg>